<?xml version="1.0" standalone="no"?>
<!DOCTYPE svg PUBLIC "-//W3C//DTD SVG 1.1//EN" "http://www.w3.org/Graphics/SVG/1.1/DTD/svg11.dtd" >
<svg xmlns="http://www.w3.org/2000/svg">
<metadata></metadata>
<defs>
<font id="white_pineregular" horiz-adv-x="1228" >
<font-face units-per-em="2048" ascent="1638" descent="-410" />
<missing-glyph horiz-adv-x="1310" />
<glyph horiz-adv-x="0" />
<glyph horiz-adv-x="682" />
<glyph unicode=" "  horiz-adv-x="1310" />
<glyph unicode="&#x09;" horiz-adv-x="1310" />
<glyph unicode="&#xa0;" horiz-adv-x="1310" />
<glyph unicode="!" horiz-adv-x="299" d="M102 1378q2 -254 29 -983q1 -17 35 -23.5t68.5 0t35.5 23.5q14 383 29 983q1 23 -48.5 32.5t-99 0t-49.5 -32.5zM104 102q0 -43 27.5 -72.5t69.5 -29.5q43 0 69.5 29t26.5 73q0 45 -26 73t-70 28q-42 0 -69.5 -28.5t-27.5 -72.5z" />
<glyph unicode="&#x22;" horiz-adv-x="405" d="M-0.5 1366q1.5 -34 16.5 -70q15 -35 50.5 -49.5t70.5 0.5q35 13 47 48t-6 69q-25 52 -32 96t-1 65t5 34.5t-17 17.5q-38 10 -63 -29q-23 -34 -35.5 -58t-24.5 -57t-10.5 -67zM218.5 1365.5q2.5 -33.5 17.5 -69.5q13 -35 48 -49.5t70 0.5q35 13 47 48t-6 69 q-21 42 -29 79.5t-5.5 59t6 38t1.5 25t-16 11.5q-40 10 -65 -29q-23 -36 -34.5 -58.5t-24 -56.5t-10 -67.5z" />
<glyph unicode="'" horiz-adv-x="192" d="M2.5 1533q-8.5 -35 11.5 -67q29 -50 38.5 -94t5 -65.5t-2.5 -35t19 -16.5q38 -7 61 35q20 35 31 59.5t20.5 58.5t5.5 68t-22 68q-17 34 -53.5 46t-71.5 -5q-34 -17 -42.5 -52z" />
<glyph unicode="," horiz-adv-x="225" d="M-0.5 -81q-1.5 -5 10.5 -17q30 -24 70 2q35 24 55 40.5t44 43t35 58.5t11 71q0 38 -27 65t-65 27t-61.5 -27.5t-20.5 -64.5q3 -47 -4 -85.5t-17.5 -56t-19.5 -34.5t-10.5 -22z" />
<glyph unicode="-" horiz-adv-x="733" d="M103.5 719q-1.5 -58 11.5 -68q11 -7 254.5 -6.5t251.5 6.5q9 7 9 65t-9 68q-9 9 -250.5 8.5t-255.5 -8.5q-10 -7 -11.5 -65z" />
<glyph unicode="." horiz-adv-x="194" d="M0 104q0 -45 27 -74.5t69 -29.5q44 0 71.5 29.5t27.5 74.5t-27.5 74t-69.5 29q-43 0 -70.5 -29.5t-27.5 -73.5z" />
<glyph unicode="0" horiz-adv-x="1204" d="M104.5 643q10.5 -138 47.5 -237q50 -133 108.5 -212t155.5 -143q77 -50 186 -51t189 49q162 104 239.5 268.5t89.5 425.5q6 153 -53 307t-158 250q-12 11 -33 25.5t-54.5 34.5t-73.5 35.5t-83.5 26.5t-92 10t-91.5 -17q-131 -46 -227 -184t-135 -324q-25 -126 -14.5 -264 zM236 637q-25 412 235 590q34 25 90 35.5t96 -2.5q120 -39 195.5 -120.5t124.5 -230.5q24 -77 10 -245q-17 -215 -131 -363q-51 -53 -92 -84.5t-86.5 -50.5t-92.5 -14t-100 32q-75 46 -115 97.5t-85 152.5q-10 23 -28.5 100t-20.5 103z" />
<glyph unicode="1" horiz-adv-x="796" d="M108 1256.5q-12 -33.5 3 -64.5q10 -20 38.5 -23.5t65 6.5t72.5 22t68.5 22.5t45.5 9.5l-20 -1077q-95 -3 -128 -27.5t-5 -93.5q2 -6 5.5 -10.5t9 -8t10 -5.5t12 -3t11 -2t11 -1.5t8.5 -0.5q53 -1 155.5 1.5t164.5 0.5q32 -1 48.5 23t8.5 57q-7 36 -36 53t-60 15.5 t-57 -0.5q-2 320 4 638q2 110 8 293t7 230.5t-3 103.5q-5 15 -33 13t-60.5 -12.5t-78 -29t-85 -36t-81.5 -33t-67 -21.5q-30 -6 -42 -39.5z" />
<glyph unicode="2" horiz-adv-x="1173" d="M105 99q-9 42 11.5 90.5t61.5 93.5q83 94 326 299q231 194 293 258q43 46 75 112.5t13 124.5q-26 76 -70.5 113.5t-136.5 64.5q-86 27 -187.5 -27t-142.5 -141q-1 -2 -10.5 -27.5t-18 -39.5t-23.5 -34t-36 -28t-47 -4q-27 4 -43 15t-20 30t-4 37t10 46.5t17.5 47 t21.5 48.5q25 58 89.5 119t133.5 96q58 28 131.5 35.5t128.5 -5.5q139 -33 217 -90t131 -180q22 -50 24 -103t-13.5 -102t-39.5 -95.5t-58.5 -89.5t-66.5 -76t-67 -64q-119 -103 -287 -254t-172 -168q-2 -8 22 -13t61.5 -7t81.5 -2.5t83.5 0t67.5 -0.5q71 -2 139 7t100 24 q11 6 16 10.5t9 8t5.5 11.5t2 14.5t1.5 24t3 33.5q8 67 61 62q34 -3 52 -23t18 -51q0 -36 1 -83t0.5 -79t-3.5 -82q-3 -44 -40.5 -68.5t-76.5 -6.5q-15 7 -21.5 17t-17.5 19q-34 3 -75.5 3.5t-95 -0.5t-68.5 -1q-44 1 -173 -2t-218 0.5t-125 20.5q-42 20 -51 62z" />
<glyph unicode="3" horiz-adv-x="1177" d="M105 93q7 -32 38 -52q16 -10 29.5 -11t24 6t19 16t19.5 20.5t21 17.5q97 -55 177.5 -76t189.5 -12q62 5 103.5 12.5t102 32.5t117.5 68q58 44 98 116t48 146q18 134 -46 240.5t-163 148.5q-17 7 -60.5 14.5t-52.5 10.5q84 52 125 107t53 128q23 132 -62 246t-196 141 q-241 56 -411 -59q-11 7 -25.5 23.5t-23 25.5t-26.5 14.5t-36 -8.5q-32 -18 -39.5 -45t-3.5 -70q3 -12 0.5 -72t-2.5 -71q0 -46 13 -71.5t50 -26.5q36 29 88.5 87.5t75.5 78.5q43 36 126 63.5t145 13.5q194 -46 194 -209q0 -103 -110 -196q-73 -64 -224 -64h-12.5h-17 t-18 -1t-20 -3t-18.5 -6t-17.5 -10t-13 -14.5t-9.5 -20.5t-3 -27q0 -21 8 -36t19.5 -21.5t27 -9.5t26.5 -2.5t23 1.5l13 1q66 0 122 0.5t117.5 -11t116.5 -36.5q46 -23 81 -81t36 -122q1 -61 -27.5 -120t-68.5 -91q-73 -59 -273 -63q-49 -1 -118 25t-105 59q-30 29 -88.5 82 t-81.5 75q-38 0 -52.5 -25t-16.5 -69q0 -8 -0.5 -61.5t-4.5 -81.5q-8 -33 -1 -65z" />
<glyph unicode="4" horiz-adv-x="1110" d="M102 532q5 -14 23 -21.5t52.5 -9.5t67.5 -1.5t89.5 1.5t97.5 1q43 -1 142 -2t143 -2q0 -70 -2 -167.5t-2 -170.5q-8 -2 -25.5 -4.5t-32.5 -6.5t-28 -10q-13 -7 -24 -24.5t-13 -32.5q0 -19 6.5 -41.5t17.5 -26.5q13 -5 30.5 -8t29 -3.5t34 -1.5t29.5 -1q27 -1 82.5 1 t83.5 1q32 -2 62 14t39 43q10 40 -21 82q-16 14 -61.5 21t-53.5 10q1 28 1.5 141.5t2.5 184.5q0 8 14 8t33.5 -1t39.5 2.5t34 22t15 52.5q1 40 -18.5 58t-43 17t-43.5 -0.5t-20 9.5q9 241 4 589q0 17 -0.5 49.5t-1 46.5t-2 32.5t-4 27.5t-7.5 12q-11 10 -48 -20.5t-104 -105 t-121 -138t-144 -172.5q-261 -308 -316 -385q-41 -58 -37 -70zM360 655q19 35 156.5 192.5t222.5 246.5q0 -182 -14 -439q-51 -3 -124 -5.5t-153.5 -2t-87.5 7.5z" />
<glyph unicode="5" horiz-adv-x="1146" d="M103 373q6 33 36 45q13 6 25 7.5t23 -3t20.5 -10t19 -17t16 -20t15 -24.5t13 -24.5t12 -25t10.5 -22.5q12 -27 44.5 -61.5t70.5 -53.5q84 -41 163 -29q81 14 126.5 43t86.5 94q47 85 56 187q11 100 -56 205q-45 68 -157 102q-78 25 -213 6q-59 -8 -182 -51 q-58 -20 -58 -8q3 72 1 346.5t1 365.5q2 0 662 9q21 0 47.5 -17.5t32.5 -34.5q33 -79 47 -186q1 -12 -14 -31t-29 -22q-58 -11 -93 16q-12 9 -21 28t-19.5 46t-18.5 43q-315 0 -442 -8q0 -67 1 -196t1 -187q95 39 225 39q87 -3 199 -56q103 -44 161 -163q49 -90 54 -218 q3 -72 -15.5 -147.5t-52.5 -132.5q-55 -96 -100 -133t-115 -60q-48 -14 -135 -14.5t-152 16.5q-59 16 -115.5 51t-93.5 83q-24 32 -44.5 70.5t-34.5 79t-8 73.5zM176 1425z" />
<glyph unicode="6" horiz-adv-x="1101" d="M102 735q-6 -145 18.5 -308.5t92.5 -260.5q42 -62 124.5 -112.5t158.5 -53.5q137 -6 254 51q115 61 178 166q65 104 71 242q3 94 -24 180q-27 85 -82 152q-49 57 -131 102q-73 36 -168 39q-94 6 -172 -29q-121 -59 -174 -117q24 260 92 379q20 36 61 72t70 47 q32 14 75.5 16t75.5 -4t54 -14q74 -29 90 -74q8 -25 24.5 -54t30.5 -42q37 -35 99 -10q46 18 10 143q-4 13 -9.5 33t-8.5 30t-9.5 20t-15.5 15q-7 4 -31.5 17t-48 24.5t-47.5 18.5q-89 27 -182 31q-128 6 -213 -39q-47 -23 -95 -85t-77 -126q-25 -54 -56 -206t-35 -243z M274 500q3 83 39 139q17 29 50 61.5t61 47.5q90 44 186 32q55 -7 102.5 -37t75.5 -67q80 -97 76 -219q-5 -85 -26 -129q-37 -75 -109 -119q-59 -34 -112 -45t-130 0q-81 17 -155 119q-64 92 -58 217z" />
<glyph unicode="7" horiz-adv-x="1054" d="M82 1194q-3 -32 13.5 -54t47.5 -28q64 -12 86 55q4 16 17 52.5t18 50.5q56 0 231.5 1.5t252.5 0.5q-27 -70 -194 -509t-228 -595q-11 -1 -22 -1.5t-15.5 -1t-13 -2.5t-21.5 -7q-18 -8 -33 -25.5t-18 -36.5q-14 -61 30 -80q42 -17 176.5 -13t163.5 19q22 11 36 32.5 t14 35.5q0 17 -10 41.5t-23 30.5q-18 7 -84 10q39 106 172.5 447.5t209.5 553.5t62 234q-8 13 -59 19t-135 6.5t-164.5 -1.5t-183.5 -5t-156 -3q-88 2 -115.5 -12t-44.5 -70q-7 -27 -7.5 -77t-2.5 -68z" />
<glyph unicode="8" horiz-adv-x="1056" d="M102 375q8 -166 144 -289q104 -94 313 -86q177 7 279 117q95 102 110 229q25 171 -41 285q-14 24 -35.5 46.5t-38 36t-45.5 36t-43 34.5q8 9 24.5 27t26.5 29t23.5 27.5t22.5 31.5q44 76 51 178q6 98 -53.5 187t-151.5 133q-97 46 -201.5 33t-191.5 -76 q-70 -52 -109 -134t-39 -171q0 -88 40 -166.5t116 -104.5q-111 -54 -159 -162t-42 -241zM262 428q0 117 67 198t181 85q124 4 205.5 -75.5t81.5 -203.5q0 -81 -11 -131t-53 -98q-68 -78 -207 -78q-60 0 -116.5 26.5t-92.5 73.5q-34 46 -44.5 91t-10.5 112zM287 1071 q5 92 74 166t159 74q117 0 185 -74q23 -25 34.5 -56t13 -53.5t1.5 -66.5q0 -101 -72 -163.5t-174 -59.5q-97 5 -160.5 71t-60.5 162z" />
<glyph unicode="9" horiz-adv-x="1101" d="M104 973q-6 -87 23 -178q32 -92 84 -152q56 -65 131 -102q74 -38 166 -41q99 -3 172 30q114 51 174 117q-10 -109 -17 -167.5t-23.5 -124.5t-39.5 -97q-20 -27 -60 -61.5t-65 -44.5q-32 -14 -80 -16.5t-85 3t-58 13.5q-74 29 -88 73q-8 23 -25 53.5t-30 43.5 q-39 35 -101 10q-49 -19 -8 -144q4 -13 9.5 -33t8 -29.5t9 -19.5t16.5 -14q78 -46 127 -61q84 -27 180 -31q129 -3 228 39q105 45 168 164q24 48 49 219t28 274q6 148 -17.5 310t-92.5 260q-42 62 -123.5 111.5t-157.5 52.5q-142 6 -252 -52q-113 -55 -178 -164 q-69 -111 -72 -241zM240 975q5 90 24 129q21 39 52 71t59 46q113 71 239 45q83 -15 154 -117q62 -85 59 -217q-3 -76 -39 -137q-20 -31 -52 -63.5t-58 -45.5q-87 -47 -184 -35q-55 7 -103.5 38t-77.5 67q-77 99 -73 219z" />
<glyph unicode=":" horiz-adv-x="401" d="M102 444q0 -43 28 -71.5t71 -28.5q44 0 71 28.5t27 71.5q-2 46 -29 75.5t-69 29.5q-43 0 -71 -29.5t-28 -75.5zM102 1024q0 -43 28.5 -72.5t70.5 -29.5q44 0 71 29t27 73q-2 45 -29 73.5t-69 28.5q-43 0 -71 -29t-28 -73z" />
<glyph unicode="?" horiz-adv-x="745" d="M-18 1216.5q5 -31.5 22.5 -61t32.5 -22.5q6 3 69.5 41t130 60t144.5 19q95 -4 144.5 -50.5t49.5 -125.5q0 -65 -34 -128t-109 -152q-146 -176 -127 -355q4 -41 4 -53q3 -27 41.5 -37t77 1t41.5 36l-2 53q-9 153 117 301q90 107 133 185t43 172q0 126 -87 212t-255 89 q-241 2 -430 -139q-11 -14 -6 -45.5zM289 102q0 -43 27 -72.5t69 -29.5q45 0 71.5 29t26.5 73q0 45 -27 74t-69 29q-43 0 -70.5 -29.5t-27.5 -73.5z" />
<glyph unicode="@" horiz-adv-x="1378" d="M0 692q0 -142 40.5 -268.5t113.5 -220.5t180.5 -148.5t234.5 -54.5q185 0 359 92q10 5 11.5 23.5t-4.5 40.5t-15.5 43t-22 33t-23.5 8q-14 -5 -57 -22.5t-72 -28.5t-69.5 -21t-71.5 -10q-81 0 -161.5 37t-147.5 103t-108.5 170.5t-41.5 227.5q0 110 34.5 210t90.5 171.5 t125.5 124.5t140.5 79t134 26q138 0 237.5 -64t147 -167t47.5 -232q0 -86 -12 -148.5t-32 -94.5t-40.5 -46t-42.5 -14q-88 0 -55 207q3 26 7 66t3 121t-17 112q-13 28 -71.5 54t-120.5 25q-87 -2 -164.5 -36.5t-135 -95t-91 -150.5t-33.5 -197q0 -123 56 -205t149 -82 q80 0 144.5 60t92.5 135h4q25 -195 187 -195q160 0 253 124.5t93 342.5q0 127 -36.5 239t-106 200.5t-182 140t-253.5 51.5q-166 0 -301.5 -65.5t-220.5 -174.5t-130.5 -244.5t-45.5 -281.5zM432 657q0 90 45 169.5t103 119.5q34 23 93.5 25t78.5 -23q30 -45 -23 -196 q-21 -55 -61 -105.5t-64 -71.5q-42 -38 -77 -42.5t-54.5 17.5t-30 51t-10.5 56z" />
<glyph unicode="A" horiz-adv-x="1699" d="M82 82q-1 -6 -1 -11q1 -25 15 -41q18 -20 36 -24t38 -4h33h79q34 -1 59 -1q34 0 52 1q102 5 109 47q1 11 1 20q0 46 -32 62q-14 9 -48.5 15t-39.5 14l205 430q39 78 125 78h6q222 -4 332 -4q70 0 92 -62q22 -57 86 -208t90 -230q-5 -9 -37 -15.5t-45 -13.5 q-23 -14 -28 -33.5t-1 -50.5q1 -14 10.5 -23t29 -14t31.5 -6.5t38 -3.5q18 -1 46 -1t65 1t64.5 1t45.5 -1q21 0 40 4q18 4 36 24q14 16 15 41q0 6 -1 11q-4 28 -31 42.5t-59.5 22t-40.5 15.5q-7 6 -119.5 260.5t-248 559t-179.5 394.5q-30 58 -79 59q-9 0 -19 -3 q-73 -19 -82 -76q-5 -35 -205.5 -469.5t-267.5 -564.5l-90 -164q-7 -8 -38.5 -15.5t-57.5 -21.5t-29 -41zM711 821q6 101 118 262q22 30 47 30l1 -1q26 0 45 -27q35 -45 67.5 -117t52.5 -143q-52 0 -167 -2t-164 -2z" />
<glyph unicode="B" d="M88 1251q24 -17 52 -17t52 9t54.5 12.5t58.5 -6.5q-8 -362 -20 -1048q-14 -1 -38 -2t-36 -2q-67 -6 -74 -78q-1 -6 -1 -11q0 -48 65 -65q31 -10 73 -20q116 -22 222 -22q282 0 491 159q119 88 137 237q4 31 4 60q0 103 -54 181q-68 100 -208 134q-17 4 -47 14t-43 13 q15 31 47 92.5t51.5 106t30.5 87.5q20 78 20 135q-1 64 -25 100q-46 70 -208 97q-53 10 -110 11q-13 0 -25 1q-42 1 -77 -3q-45 -4 -108.5 -16t-100 -20.5t-105.5 -25.5q-40 -9 -61 -39q-18 -25 -18 -60q0 -7 1 -14zM430 557q0 41 17.5 61.5t60.5 34.5q55 17 115 17 q120 0 262 -66q57 -26 79 -92q11 -34 11 -70q0 -34 -10 -68q-21 -70 -78 -106q-44 -27 -81 -46t-84 -36q-46 -16 -90 -24q-35 -6 -74 -6h-22q-52 2 -104 16q0 321 -2 385zM438 811v483q55 15 112 15q87 0 177 -35q59 -22 59 -106v-11q-5 -109 -107 -221.5t-214 -132.5h-3h-3 q-3 1 -9.5 3.5t-11.5 4.5z" />
<glyph unicode="C" d="M73 522q20 -134 87 -231q81 -118 183.5 -183.5t244.5 -93.5q65 -12 125 -12q161 0 286 90q10 -6 21 -17.5t20 -20.5t19.5 -16t23.5 -6t29 11q32 21 38 49q4 16 3 36q0 16 -2 34q-3 27 -3 79t-1 64q-2 44 -17.5 69.5t-52.5 24.5q-148 -134 -172 -157q-35 -32 -99 -54 q-56 -20 -100 -20h-12q-100 7 -164.5 37.5t-160.5 103.5q-52 40 -91 114.5t-47 141.5q-7 48 -7 95q0 158 77 290q119 212 281 291q74 36 158 36q39 1 81 -7q131 -24 187 -107q13 -20 33.5 -37t33.5 -14q34 6 57 30t23 60q4 118 4 156v12q-3 46 -35 66q-15 9 -32 10 q-20 0 -43 -12q-10 -6 -29 -24.5t-31 -27.5q-147 59 -271 59q-116 0 -212 -52q-180 -98 -283.5 -251t-142.5 -364q-16 -68 -16 -141q0 -54 9 -111z" />
<glyph unicode="D" d="M84 1346v-7q0 -55 72 -59q7 -1 23 -1q32 0 102 3q-2 -373 -2 -1118q-26 -1 -45.5 0t-40 -0.5t-35.5 -5.5q-23 -8 -44 -26.5t-22 -35.5q-1 -8 0.5 -16t8.5 -18.5l10 -15t14 -18t12 -14.5q10 -12 53 -12q39 -1 75 -1q221 0 339 42q284 103 428 327q124 194 124 434 q0 37 -3 75q-11 140 -89 264t-200 200t-258 82q-68 5 -140 5h-37q-59 0 -131 -2q-96 -2 -140 -1q-67 -3 -74 -81zM420 1200q0 11 1 23.5t2.5 27.5t2.5 23q45 8 89 8q65 0 129 -18q106 -28 183 -92t122 -160q42 -90 42 -193v-14q-3 -118 -34.5 -218t-100.5 -186t-172 -139 q-51 -26 -77.5 -39t-75 -30t-93.5 -23q-4 41 -6.5 86.5t-3 75t-1.5 80t-1 71.5q-6 357 -6 717z" />
<glyph unicode="E" d="M61 76q0 -61 103 -68q90 -8 258 -8h57q141 0 295 2q132 2 200 2h44h17.5h17.5t15 0.5t15 1t13.5 2t14 3.5t12 5t12 6.5t10 9t10.5 11.5q19 25 22 59q1 16 1 29q0 15 -2 26q-4 20 -17.5 64t-15.5 51q-5 14 -30 31t-38 16q-18 -3 -37 -17.5t-26 -31.5q-5 -14 -8 -30 t-4.5 -41.5t-2.5 -34.5q-43 -2 -106 -2q-85 0 -209 4q-111 3 -197 2q-77 0 -133 -2q-2 160 -2 467q54 8 56 8q19 1 53.5 2t62 3t51.5 7q18 3 36.5 24t23.5 42q3 10 -16 30.5t-37 26.5q-25 8 -99 8q-82 0 -131 -2q-5 104 -5 157q1 5 1 10q0 53 3 154.5t3 164.5q49 -1 120 -1 q89 -1 214 1q160 2 248 2h59q8 -20 10 -58t9 -51q12 -21 32.5 -35t30.5 -14q49 4 76 63t27 142q-8 56 -33 84q-8 8 -15.5 13.5t-17.5 9t-17 5.5t-21 2.5t-21 0.5h-27h-29h-694q-111 0 -172 -13q-68 -9 -68 -70v-10q1 -29 18 -42.5t50 -22.5q6 -2 30.5 -6t26.5 -4 q1 -73 5 -255t4 -284t-4 -291t-5 -264q-62 -7 -94.5 -26t-32.5 -68z" />
<glyph unicode="F" d="M115 1319q13 -37 121 -37q28 0 61 2q23 -349 23 -682q0 -228 -11 -448q-7 -1 -24.5 -4t-26 -4.5t-23.5 -5t-22.5 -8t-16.5 -11t-12.5 -16t-3.5 -21.5v-9q0 -40 16 -56q17 -17 63 -17h5q154 0 232 -2q17 -1 30 -1q30 -1 44 3q20 4 40 25q15 15 15.5 38t-17.5 50 q-12 19 -30.5 25.5t-51 8t-49.5 5.5v520q13 -2 42 -2q25 0 61 2q80 2 92 2q23 -3 49 -1.5t48 6t36.5 22t13.5 47.5t-53 46q-46 14 -92 14h-11q-33 -1 -53 -1h-16q-17 -1 -37 -1h-45.5t-40.5 1l-18 467h479q9 -15 19.5 -38t19.5 -38t20 -24q27 -19 65 -19q12 0 25 2 q14 3 29 22q14 18 14 29q0 77 -47 183q-6 15 -31.5 28t-46.5 13q-659 0 -778 -2q-48 -4 -71 -19q-41 -23 -41 -62q0 -15 6 -32z" />
<glyph unicode="G" horiz-adv-x="1341" d="M12 469q15 -88 78 -168q79 -106 190.5 -177t232.5 -100q103 -24 209 -24q18 0 37 1q125 5 240 44q37 13 72.5 40t52.5 58q102 206 115 457v9q0 37 -23 58q-25 23 -71 23q-99 3 -165 3q-33 0 -58 -1q-52 -1 -78 -22q-23 -20 -23 -56v-6q0 -74 105 -80q86 -4 145 -8 q-45 -179 -53 -207q-14 -50 -43.5 -80t-81.5 -43q-98 -27 -189 -27q-233 0 -421 175q-78 74 -95 156q-19 75 -19 154q0 23 2 46q7 103 38 195.5t99.5 175.5t166.5 139q143 82 274 82q80 0 156 -31q71 -28 94 -48q36 -32 36 -86q0 -10 -1 -21q-6 -34 20 -55q23 -19 56 -19h6 q38 3 62.5 25t25.5 61q0 7 4 65q3 51 3 79q0 4 -1 8q0 28 -10.5 70t-32.5 65q-23 23 -55 23q-17 0 -37 -7q-12 -4 -18.5 -18.5t-9.5 -25.5t-14 -16t-32 9q-140 67 -284 67q-103 0 -207 -34q-179 -59 -305.5 -203.5t-176.5 -334.5q-29 -114 -29 -232q0 -78 13 -158z" />
<glyph unicode="H" horiz-adv-x="1390" d="M82 86v-9q0 -39 16 -55q18 -18 68 -18h231q19 -1 33 -1q29 0 43 3q20 4 39 23q15 15 15.5 38t-17.5 52q-12 19 -30.5 25.5t-51 8t-49.5 5.5l2 479h637l-12 -483q-17 -4 -49 -5.5t-51 -8t-32 -25.5q-17 -27 -16.5 -50.5t14.5 -37.5q21 -21 41 -25q14 -3 45 -3q14 0 31 1 q76 2 230 2h5q47 0 64 17q15 15 15 52v13q0 12 -3 21.5t-11.5 16t-16 11t-22.5 8t-23.5 5t-26 4.5t-24.5 4q-1 57 -3 146t-4 276q-1 94 -1 161t1 109l11 432q7 1 24.5 4t26 4.5t23.5 5t22.5 8t16.5 11t12.5 16t3.5 21.5v9q1 40 -15 56q-17 17 -64 17h-5q-154 0 -232 2 q-17 1 -30 1q-30 1 -44 -3q-20 -4 -40 -25q-15 -15 -15.5 -38t17.5 -52q12 -18 31 -24.5t50.5 -7.5t49.5 -5v-240q2 -40 2 -250h-62h-137q-59 -1 -111 -1q-70 0 -128 1q-102 2 -201 11l22 479q18 4 49.5 5t50 7.5t31.5 24.5q17 28 16.5 52t-14.5 38q-21 21 -41 25 q-14 3 -44 3q-14 0 -31 -1q-76 -2 -230 -2h-5q-47 0 -64 -17q-15 -15 -15 -52v-13q0 -12 3 -21.5t11.5 -16t16 -11t22.5 -8t23.5 -5t26 -4.5t24.5 -4q5 -214 5 -367.5t-5 -246.5l-16 -506q-8 -2 -28.5 -5.5t-30.5 -6t-26 -7.5t-24 -11.5t-14 -17t-6 -24.5z" />
<glyph unicode="I" horiz-adv-x="679" d="M106 1348q5 -26 21.5 -42t43 -22t43 -7t43.5 -1h9l-6 -1120q-96 -6 -128 -30q-17 -13 -17 -38q0 -23 14 -57q2 -7 7.5 -12.5t10 -8t13.5 -5t13 -3t14 -1.5l10 -1h34q48 0 121 2q57 1 102 1q36 0 64 -1q32 -1 48 23q11 16 12 36q0 10 -3 21q-5 26 -21.5 42.5t-43.5 22.5 t-43.5 7.5t-43.5 1.5h-7l8 1120q94 5 126 30q17 14 17 40q0 23 -12 55q-12 29 -70 29q-30 1 -70 1t-90.5 -1t-90.5 -1t-68 1q-32 0 -50 -24q-12 -16 -13 -38q0 -9 3 -20z" />
<glyph unicode="J" horiz-adv-x="860" d="M43 66q11 50 62 50q7 0 14 -1q4 0 11 -1t11 -1q109 5 183 63.5t100 163.5q22 83 22 166q4 111 6.5 304t3.5 330l1 138q-22 1 -63 1.5t-59 2.5t-42.5 7t-38.5 17.5t-23 32.5q-5 14 -5 26q0 22 15 42q23 29 54 29h4q52 -2 141 -2h48q41 1 75 1q70 0 113 -1q1 0 26 -1.5 t44.5 -3.5t39.5 -8.5t23 -15.5q10 -24 10 -43q0 -35 -33 -52q-52 -27 -174 -32q-2 -494 -4 -666q0 -85 -1.5 -131.5t-13.5 -117.5t-36 -127q-99 -234 -375 -281q-12 -2 -24 -2l-64 12q-31 14 -46 41q-8 17 -8 36q0 11 3 24z" />
<glyph unicode="K" horiz-adv-x="1236" d="M63 1350q6 -27 23.5 -44t48.5 -22.5t44.5 -6.5t45.5 -1l-20 -1120q-94 -5 -126 -30q-17 -14 -17 -40q0 -23 12 -55q3 -7 8.5 -12.5t10.5 -8t14 -5t12.5 -3t13.5 -1.5l10 -1h34q47 0 121 2q57 1 102 1q36 0 63 -1q33 -1 50 23t9 59q-5 22 -20 37t-29 21.5t-42 10t-36 3.5 h-35l-2 34q0 128 4 191q3 41 11 134.5t12 152.5l356 -453q29 -29 41.5 -54.5t8.5 -62.5q-1 -5 -1 -9q0 -35 42 -59q48 -28 98 -28q5 0 176 6q40 0 66 22t26 54q2 32 -24 58t-60 26q-40 1 -68 5.5t-44 8t-35 19t-24.5 22t-29.5 33.5l-432 532q7 9 33 40.5t39 48.5 q40 44 81 92t91 107t80 93q5 5 23.5 27t24 26.5t23 18.5t32.5 17.5t40.5 8.5t57.5 5q34 0 60 26t26 58q0 33 -26.5 54.5t-66.5 23.5q-29 0 -89 2t-89 2q-45 0 -71 -26q-22 -22 -22 -59q0 -6 1 -12q5 -36 -7 -60t-42 -56q-27 -28 -66.5 -77.5t-58.5 -70.5l-139 -153 q-14 7 -23 10l-12 342q95 7 127 32q17 13 16 40q0 23 -12 55q-13 29 -70 29q-24 1 -54 1q-46 0 -106.5 -2t-105.5 -2q-30 0 -53 1q-33 2 -51 -22q-12 -16 -12 -38q0 -9 3 -20z" />
<glyph unicode="L" horiz-adv-x="1155" d="M102 78v-6q0 -22 6 -36q8 -16 24 -23.5t31 -10t36 -2.5q54 2 171 2h170q181 -2 278 -2h63h26q69 0 92 9q27 11 43 65q5 20 7 43.5t2.5 53t1.5 46.5q1 6 1 12q0 23 -14 41q-17 22 -47 29q-10 2 -18 2q-49 0 -68 -57q-19 -66 -28 -92q-42 3 -104 3q-56 -1 -129 -3 q-80 -3 -136 -2q-51 0 -84 2q-14 106 -14 421v170q4 458 24 560q10 1 37 2.5t46 4.5t36 9t30.5 25t18.5 40q3 8 -18 25.5t-35 17.5q-46 1 -91 1q-137 0 -276 -7q-12 0 -27.5 -18.5t-15.5 -32.5q0 -13 14 -31t29 -24q12 -4 28.5 -5.5t32 -0.5t36.5 0q-2 -201 -7.5 -586.5 t-7.5 -572.5q-13 0 -35.5 -0.5t-33.5 -1t-26 -3t-26 -8.5q-20 -9 -31 -21.5t-12 -37.5z" />
<glyph unicode="M" horiz-adv-x="1822" d="M61 80q0 -33 20.5 -48.5t43.5 -17.5q59 -8 182 -10t150 -4h7q30 0 52 17q24 19 29 55q3 34 -17 56t-55 30q-17 5 -86 14q11 131 11 375v63q0 28 -1 55q0 250 13 384q299 -433 340 -492q32 -48 97 -147t101 -154q8 -1 16 -1q59 0 101 71q50 85 147.5 246t141.5 235 q4 7 98 158l-22 -795q-7 -1 -25 -2.5t-28.5 -3.5t-16.5 -8q-51 -44 -53 -76q-3 -29 16.5 -51t52.5 -23q166 -6 336 -6q36 0 54 22q16 18 16 48v10q-7 79 -74 82q-33 0 -123 4q0 193 3 549t3 547q63 0 86 2q57 3 81 23q24 19 24 60q0 40 -26 56q-25 16 -79 18q-59 0 -88 4 q-30 4 -50 4q-23 1 -37 -5q-24 -10 -44 -62q-47 -123 -161 -331.5t-206.5 -359.5t-109.5 -169q-289 422 -432 639q-18 28 -51 94t-59 119t-33 59q-17 13 -73 13q-11 0 -24 -1q-16 0 -66.5 2.5t-64.5 2.5q-46 0 -81.5 -16.5t-35.5 -51.5q1 -56 30 -74.5t91 -23.5q10 -1 34 -2 t30 -2v-64q0 -120 2 -290q3 -190 4 -352v-46q0 -180 -12 -336q-8 -2 -27 -2t-49 2q-14 1 -26 1q-34 0 -38 -7q-1 -1 -7 -5l-7.5 -5t-6.5 -5.5t-6.5 -8t-4.5 -10t-4 -13.5t-2 -17t-1 -22z" />
<glyph unicode="N" horiz-adv-x="1517" d="M102 1354q0 37 20.5 57.5t51.5 22.5q14 2 36 2t52 -2t55 -2t45 2q73 -17 127 -131q13 -28 168.5 -262t304.5 -454l150 -220l-4 917q-17 4 -49 5.5t-50.5 8t-31.5 25.5q-18 27 -17.5 50t15.5 38q21 21 41 25q14 3 45 3q14 0 31 -1q57 -2 114.5 -2t114.5 2q51 0 69 -18 q16 -17 15 -57v-9q0 -12 -3 -21.5t-11.5 -16t-16 -11t-22.5 -8t-23.5 -5t-26 -4.5t-24.5 -4l-4 -90l-6 -1036q18 -4 49.5 -5t50.5 -7.5t31 -24.5q18 -28 18 -51q0 -24 -16 -39q-21 -21 -41 -25q-14 -3 -44 -3q-13 0 -30 1q-78 2 -231 2h-5q-48 0 -64 17q-16 16 -15 56v9 q0 12 3.5 21.5t12.5 16t16.5 11t22.5 8t23.5 5t26 4.5t24.5 4q-24 35 -64.5 93.5t-148 211.5t-194 274t-168.5 231t-107 134l4 -950q18 -4 50.5 -5.5t51 -8t31.5 -25.5q17 -27 16.5 -50.5t-14.5 -37.5q-21 -21 -41 -25q-14 -3 -45 -3q-14 0 -31 1q-57 2 -114.5 2t-116.5 -2 q-49 0 -67 18q-15 16 -15 53v13q0 12 3 21.5t11.5 16t16 11t22.5 8t23.5 5t26 4.5t24.5 4l4 90q2 164 5 493t5 494q0 6 -5.5 18t-6.5 17q-87 6 -88 6q-66 2 -66 84z" />
<glyph unicode="O" horiz-adv-x="1517" d="M104 636q8 -144 56 -237q68 -132 146.5 -209.5t207.5 -138.5q98 -48 243.5 -48t246.5 52q209 106 305.5 272.5t105.5 428.5q0 7 1 14q0 145 -78 291q-81 153 -212 250q-19 11 -44.5 23.5t-71 32.5t-97.5 34q-51 15 -109 25q-48 9 -101 8h-20q-63 -2 -120 -19 q-165 -49 -276.5 -186.5t-159.5 -327.5q-24 -94 -24 -203q-1 -31 1 -62zM262 633q-5 46 -4 89q0 342 297 505q45 25 118 37q36 6 67.5 6t56.5 -6q159 -37 259 -117t167 -227q20 -42 32 -112q10 -56 10 -100q0 -11 -1 -22q-12 -129 -48.5 -218.5t-123.5 -160.5 q-64 -53 -120 -86t-116 -52q-50 -16 -101 -16q-11 0 -22 1q-63 4 -131 30q-100 44 -154.5 95.5t-115.5 152.5q-14 24 -40.5 99.5t-29.5 101.5z" />
<glyph unicode="P" horiz-adv-x="1146" d="M211 4h24h57q25 -1 44 -1q25 0 39 1q65 3 117 23q12 4 22 23.5t8 33.5q0 15 -11.5 33t-25.5 24q-20 10 -86 21v426q38 8 139.5 26.5t153.5 32.5q64 17 128 60t118 103q52 61 82 145q23 66 24 135q0 19 -2 38q-21 209 -170 261q-105 37 -278 59q-26 3 -54 5q-18 1 -39 2 q-10 0 -21 -1q-32 -1 -55 -2t-60.5 -4.5t-54.5 -5t-59 -6.5t-54 -6q-20 -3 -31.5 -7.5t-18.5 -9.5t-10 -19t-4 -24.5t-2 -37.5t-2 -48q56 -5 123 -12q-3 -107 -5.5 -499.5t-15.5 -600.5q-9 -4 -20 -7.5t-18 -6t-13 -6t-10 -7.5q-3 -4 -15.5 -21t-16.5 -25t-10 -21 q-5 -11 -5 -20q0 -54 88 -54zM424 752v542q67 17 133 17q130 0 256 -66q58 -29 76 -119q6 -29 6 -55q0 -57 -27 -102q-95 -167 -256 -189q-21 -3 -188 -28z" />
<glyph unicode="Q" horiz-adv-x="1611" d="M111 627q10 -76 15.5 -109t22 -92t41.5 -104q58 -104 183 -203q140 -119 314 -119q95 0 200 35q28 8 55 20.5t68.5 35t58.5 30.5q146 -104 215 -135.5t146 -34.5h12q36 0 52 16q17 19 17 72q0 31 -36 53t-80 27q-107 17 -207 133l24 36t19 29q94 160 129 317 q20 86 20 176q0 77 -14 157q-42 241 -266 389q-142 91 -304 91q-140 0 -294 -67q-132 -58 -229.5 -181.5t-139.5 -274.5q-28 -103 -28 -203q0 -47 6 -94zM326 444q-65 145 -65 277q0 265 265 477q60 35 116 56t98 30q28 5 56 5l30 -1q42 -5 70.5 -13t62.5 -27.5t52.5 -33.5 t47.5 -38q157 -122 170 -308q2 -30 2 -58q0 -84 -17 -153q-24 -93 -86 -190q-11 -18 -35.5 -47.5t-29.5 -36.5q-17 13 -42.5 40.5t-46.5 43.5t-44 16q-22 0 -40.5 -13.5t-26.5 -34.5t2.5 -51t41.5 -58q10 -11 49 -60q-34 -44 -78.5 -62.5t-107.5 -25.5q-27 -2 -53 -2 q-272 0 -391 268z" />
<glyph unicode="R" d="M63 1335q6 -57 64 -57h6h103q-4 -99 -4 -571t-3 -553h-26.5t-29 0.5t-15.5 -0.5q-64 -8 -64 -72q3 -37 28.5 -56.5t65.5 -21.5q65 0 201 -4q47 0 77 24q27 22 26 60v10q-4 47 -101 60q0 61 -1 202.5t-1 204.5l334 -348q29 -29 42 -55t9 -62q-1 -5 -1 -9q-1 -35 41 -59 q46 -28 99 -28l177 6q40 0 66 22t26 54t-26 58t-60 26q-48 1 -77.5 5t-53.5 19t-33 24t-37 40l-270 297q-24 23 -95 108q26 10 69 26t74 28.5t56 27.5q99 57 170 125q80 75 99 179q6 30 5 60q0 71 -32 135q-46 91 -144 130q-77 31 -167 46q-87 15 -179 14h-6q-96 0 -176 -7 t-178 -20q-29 -3 -45 -21q-13 -15 -13 -38v-9zM385 1284q13 3 56 4h23q35 0 79 -2q59 -3 125 -17.5t110 -39.5q43 -24 60 -70q10 -28 10 -58q0 -19 -4 -39q-11 -51 -45 -93q-69 -85 -173.5 -118.5t-238.5 -35.5z" />
<glyph unicode="S" d="M203 354q0 -147 10 -329q3 -43 40 -64q19 -11 40 -11q18 0 37 9q11 4 22 13t24 21.5t21 18.5q25 -3 67.5 -9.5t75 -10t60.5 -2.5q81 1 144 17.5t119.5 60t92.5 114.5q53 111 53 218q0 59 -16 116q-24 81 -64 129.5t-118 59.5q-40 6 -80 15.5t-102 27.5t-78 22 q-40 12 -80 31q-93 47 -94 130q0 29 12 62q62 177 238 230q32 10 62 10q51 0 99 -28q74 -44 99 -132q9 -30 22 -39q29 -20 53 -20q26 0 44 24q35 48 38 136q1 23 1 47q0 63 -9 137q-6 52 -42 68q-13 6 -27 6q-25 0 -54 -19q-8 -5 -16 -14t-15.5 -18t-9.5 -11q-29 0 -82 4 q-46 3 -82 3q-4 -1 -10 -1q-40 0 -73 -8q-261 -70 -367 -313q-28 -68 -28 -130q0 -33 8 -63q22 -88 85 -149t144 -78q136 -30 248 -64q73 -23 104 -64t33 -112v-8q0 -75 -36 -135q-38 -64 -101 -82q-59 -18 -116 -18q-81 0 -159 36q-98 44 -108 179q-6 59 -54 59h-8 q-33 -1 -50 -21t-17 -51z" />
<glyph unicode="T" horiz-adv-x="1333" d="M61 1384q1 28 29 48q30 21 64 23h8q30 0 55 -13q41 -23 80 -23h719q42 0 80 23q22 15 50 15q22 1 47 -9q57 -20 58 -64v-21q0 -76 -18 -161q-5 -31 -47 -39q-9 -2 -18 -2q-28 0 -44 21q-9 14 -23 43t-20 39h-348q0 -16 2 -527t2 -579q5 -1 27 -3t30.5 -4t23 -8t21 -17 t7.5 -28q1 -30 -7.5 -50t-26 -29t-35 -12t-42.5 -3q-136 4 -180 4q-85 3 -90 70q0 72 63 80h47l7 1106h-351q-33 -68 -43 -82q-15 -21 -43 -21q-8 0 -17 2q-40 8 -46 39q-21 100 -21 170v12z" />
<glyph unicode="U" horiz-adv-x="1497" d="M102 1341v14q0 35 14 51q16 18 66 19q133 0 228 5q19 1 33 1q29 0 41 -3q18 -4 38 -23q14 -14 15 -37.5t-15 -52.5q-12 -19 -28 -25t-44 -6.5t-47 -5.5l-14 -483l-2 -281q0 -196 102 -293q82 -67 247 -67h14h14q163 0 246 67q98 104 98 284v11l-8 279l-4 481 q-17 4 -47 5.5t-46 8t-28 25.5q-16 29 -15 52.5t15 37.5q19 19 39 23q13 3 43 3q15 0 33 -1q130 -7 225 -7q51 1 67 -17q14 -15 13 -51v-14q0 -12 -3.5 -21t-11.5 -15.5t-16 -11t-21.5 -8t-23 -5.5t-25.5 -4.5t-24 -3.5q-2 -48 -4 -118q0 -69 -4 -253q-2 -86 -2 -144 q0 -67 2 -98l4 -225q0 -103 -58 -207q-58 -105 -188 -165q-125 -58 -261 -58h-9.5h-8.5q-137 0 -263 58q-130 60 -189 165q-56 107 -56 207l5 225q1 52 1 112.5t-1 128.5q-2 136 -6 254l-3 118l-24.5 3.5t-26 4.5t-23 5.5t-22 8t-16 11t-12 15.5t-3.5 21zM743 154h13h-6h-7z " />
<glyph unicode="V" horiz-adv-x="1519" d="M102 1338q-1 6 0 11q0 29 23 54q13 14 39.5 20.5t44.5 7.5q9 0 23 0.5t32 -0.5q38 -1 41 -1h131q8 2 19 2q9 0 19 -2q24 -2 45.5 -6t36 -21.5t13.5 -44.5q-1 -38 -26.5 -57.5t-53.5 -21.5t-57 -0.5t-31 1.5q23 -83 52.5 -181.5t53.5 -174.5t65 -197t60.5 -178.5t67 -195 t60.5 -175.5l358 1098q-2 0 -31 -1t-56.5 1.5t-53 21.5t-27.5 56q-1 28 14 45.5t36.5 22t45 6.5t39.5 -1q19 -1 41 -1t49 0.5t42 0.5q4 0 40 1t55 0.5t45.5 -7t39.5 -20.5q21 -26 21 -54q0 -7 -1 -13q-6 -36 -35 -52q-14 -7 -51.5 -6.5t-38.5 -5.5q-8 -10 -26 -48t-23 -55 q-7 -21 -24.5 -70t-31 -89.5t-22.5 -71.5l-274 -838q-27 -60 -63 -80q-33 -19 -95 -18h-12q-26 1 -45.5 10t-31.5 28t-18 33.5t-14 39.5q-81 255 -256 829q-74 219 -77 229q-5 18 -23.5 55.5t-28.5 47.5q-5 6 -40.5 6t-47.5 6q-31 18 -37 54z" />
<glyph unicode="W" horiz-adv-x="2328" d="M104 1350q8 -65 56 -72q11 -3 37 -4.5t36 -3.5q11 -32 75.5 -255.5t148.5 -513.5t123 -421q10 -36 42 -58q22 -15 45 -16q11 0 23 4q30 10 52.5 28t39 47.5t26.5 54.5t23 67q37 116 121.5 333.5t150.5 377.5l66 159q246 -613 330 -874q15 -43 24.5 -67t26.5 -54t39.5 -48 t52.5 -28q11 -4 22 -4q23 0 45 16q33 24 44 60q40 134 123 420.5t148 511t75 256.5q12 2 37 4t37 4q48 11 55 72v7q0 26 -20 53q-22 30 -41 30q-53 4 -132.5 4t-185.5 -4q-24 0 -37.5 -31.5t-11.5 -48.5q3 -45 35 -70q13 -11 49 -14.5t51 -9.5q-42 -159 -85.5 -305 t-117 -377t-100.5 -316q-17 50 -43.5 111t-38.5 96q-13 36 -67.5 185t-85.5 229q-53 143 -164 454q-11 30 -41 42.5t-59.5 1.5t-40.5 -40q-21 -59 -73.5 -214t-84.5 -240q-101 -271 -152 -416q-13 -34 -39 -94t-45 -111q-34 112 -101.5 322t-114 364t-87.5 312q14 5 52 8.5 t51 13.5q27 24 34 72q0 19 -13.5 49t-37.5 31q-104 4 -183.5 4t-133.5 -4q-20 -2 -42 -31q-19 -25 -19 -50q0 -4 1 -9z" />
<glyph unicode="X" d="M78 95q-1 -4 0 -9q0 -7 2 -16q4 -31 18 -43t43 -15q23 -2 50 -2t60 1t50 1q7 0 42.5 -3t65.5 -3t44 6q35 17 44 52q3 10 3 20q0 23 -15 41q-7 9 -21 13.5t-27.5 4.5h-26t-19 2t-4.5 7q29 70 121 230.5t104 182.5q42 -68 117 -205.5t119 -207.5q-1 -1 -30.5 -2t-31.5 -3 q-46 -6 -58 -27.5t-5 -58.5q2 -11 8 -20t15.5 -14.5t19 -10t24 -6.5t25 -3t27 -1h25t23.5 1t19 1h125h20q66 0 90 18q25 19 25 54v8q-2 14 -5.5 23.5t-13.5 21t-31.5 18t-53.5 7.5q-41 2 -84 67q-38 56 -108 180t-121 220l-50 96q52 84 166 295t164 293q12 2 27 3t23 1.5 t19 2.5t14.5 6t9.5 12t4.5 20t-1.5 30q-8 51 -65 54q-21 3 -44.5 3.5t-56 -0.5t-44.5 -1q-5 0 -27.5 0.5t-39.5 1t-36.5 -1.5t-28.5 -6q-32 -14 -38 -48.5t16 -58.5q11 -14 44 -14q12 0 28 2q19 2 19 -1q0 -1 -1 -3q-23 -39 -109.5 -198.5t-132.5 -227.5q-39 61 -117 209.5 t-120 212.5q1 1 28 1.5t29 2.5q41 6 52.5 25.5t4.5 54.5q-2 10 -6 18t-10.5 13t-12 9t-15.5 6t-16.5 3.5t-18.5 1.5h-17.5t-18 -1t-16.5 -1q-18 -1 -61 0.5t-53 1.5q-13 1 -25 1q-61 0 -95 -17q-42 -20 -38 -56q3 -18 8 -29t26.5 -21.5t59.5 -12.5q15 -1 26 -11.5t24 -35.5 t14 -27q28 -52 95.5 -173.5t123 -221t63.5 -115.5q-206 -383 -317 -559q-9 -1 -21.5 -2.5t-20.5 -2.5t-19.5 -2.5t-18.5 -3.5t-16 -5.5t-13.5 -7.5t-11 -11t-7.5 -15t-3 -19z" />
<glyph unicode="Y" d="M80 1356q2 -17 4.5 -25.5t11.5 -21t29.5 -19t52.5 -8.5q16 0 26.5 -12t22 -37t15.5 -31q68 -105 169.5 -295t102.5 -219q4 -144 4 -265q0 -151 -6 -265q-9 -2 -42 0.5t-38 1.5q-33 -7 -56 -34q-17 -20 -17 -48q0 -7 1 -15q10 -55 103 -55q13 0 147 -3q58 -1 92 -1 q46 0 50 2q49 2 68 40q6 13 6 27q0 28 -25 62q-8 10 -24.5 15.5t-35 6t-38 1t-33.5 0.5q0 136 4.5 326.5t11.5 203.5q58 98 167 300t163 294q13 2 36.5 4t35.5 3t28 6.5t23.5 14t12.5 24.5q2 10 2 23q0 8 -1 17q-3 33 -14.5 45t-38.5 15q-23 3 -48 3.5t-60.5 -0.5t-49.5 -1 q-4 0 -30.5 1t-46 1t-43 -2.5t-34.5 -8.5q-33 -17 -39 -55q-1 -8 -1 -15q0 -29 18 -50q14 -18 66 -18h15q22 1 22 -2q0 -1 -1 -3q-35 -52 -121 -207t-135 -223q-45 74 -123 217.5t-120 212.5q1 1 20.5 1.5t22.5 2.5q46 7 57.5 29.5t3.5 62.5q-5 31 -29.5 45t-52.5 12.5 t-55 -1.5q-17 -1 -62.5 -2t-62.5 -2q-14 1 -27 1q-59 0 -80 -16q-24 -17 -24 -53v-8z" />
<glyph unicode="Z" d="M193 39q20 -25 96 -27q118 0 235 -6q58 -4 179 -4.5t171 -3.5q15 -1 28 -1q112 -1 158 51q43 48 44 148q0 21 -2 44q-7 63 -62 63q-15 0 -26 -4t-18 -12.5t-10 -15t-7 -17.5q-6 -17 -12.5 -53t-8.5 -45q-105 -6 -211 -6q-185 0 -370 18q50 70 295 471t358 604 q37 69 37 112q0 19 -7 33q-24 46 -149 52q-26 1 -62 1q-85 0 -229 -5q-90 -3 -158 -3q-86 0 -132 5q-11 1 -20 1q-40 0 -60 -17q-26 -21 -27 -74q-1 -37 -2 -112t-2 -112q0 -63 66 -82q43 18 63 48q18 28 19 59l-2 58q1 9 1 19q0 38 7 70q42 -4 104 -4q67 0 155 4 q94 5 162 5q57 0 97 -3q-4 -16 -346 -578t-350 -587q-12 -36 -12 -60q0 -22 10 -34z" />
<glyph unicode="a" horiz-adv-x="1699" d="M82 82q-1 -6 -1 -11q1 -25 15 -41q18 -20 36 -24t38 -4h33h79q34 -1 59 -1q34 0 52 1q102 5 109 47q1 11 1 20q0 46 -32 62q-14 9 -48.5 15t-39.5 14l205 430q39 78 125 78h6q222 -4 332 -4q70 0 92 -62q22 -57 86 -208t90 -230q-5 -9 -37 -15.5t-45 -13.5 q-23 -14 -28 -33.5t-1 -50.5q1 -14 10.5 -23t29 -14t31.5 -6.5t38 -3.5q18 -1 46 -1t65 1t64.5 1t45.5 -1q21 0 40 4q18 4 36 24q14 16 15 41q0 6 -1 11q-4 28 -31 42.5t-59.5 22t-40.5 15.5q-7 6 -119.5 260.5t-248 559t-179.5 394.5q-30 58 -79 59q-9 0 -19 -3 q-73 -19 -82 -76q-5 -35 -205.5 -469.5t-267.5 -564.5l-90 -164q-7 -8 -38.5 -15.5t-57.5 -21.5t-29 -41zM711 821q6 101 118 262q22 30 47 30l1 -1q26 0 45 -27q35 -45 67.5 -117t52.5 -143q-52 0 -167 -2t-164 -2z" />
<glyph unicode="b" d="M88 1251q24 -17 52 -17t52 9t54.5 12.5t58.5 -6.5q-8 -362 -20 -1048q-14 -1 -38 -2t-36 -2q-67 -6 -74 -78q-1 -6 -1 -11q0 -48 65 -65q31 -10 73 -20q116 -22 222 -22q282 0 491 159q119 88 137 237q4 31 4 60q0 103 -54 181q-68 100 -208 134q-17 4 -47 14t-43 13 q15 31 47 92.5t51.5 106t30.5 87.5q20 78 20 135q-1 64 -25 100q-46 70 -208 97q-53 10 -110 11q-13 0 -25 1q-42 1 -77 -3q-45 -4 -108.5 -16t-100 -20.5t-105.5 -25.5q-40 -9 -61 -39q-18 -25 -18 -60q0 -7 1 -14zM430 557q0 41 17.5 61.5t60.5 34.5q55 17 115 17 q120 0 262 -66q57 -26 79 -92q11 -34 11 -70q0 -34 -10 -68q-21 -70 -78 -106q-44 -27 -81 -46t-84 -36q-46 -16 -90 -24q-35 -6 -74 -6h-22q-52 2 -104 16q0 321 -2 385zM438 811v483q55 15 112 15q87 0 177 -35q59 -22 59 -106v-11q-5 -109 -107 -221.5t-214 -132.5h-3h-3 q-3 1 -9.5 3.5t-11.5 4.5z" />
<glyph unicode="c" d="M73 522q20 -134 87 -231q81 -118 183.5 -183.5t244.5 -93.5q65 -12 125 -12q161 0 286 90q10 -6 21 -17.5t20 -20.5t19.5 -16t23.5 -6t29 11q32 21 38 49q4 16 3 36q0 16 -2 34q-3 27 -3 79t-1 64q-2 44 -17.5 69.5t-52.5 24.5q-148 -134 -172 -157q-35 -32 -99 -54 q-56 -20 -100 -20h-12q-100 7 -164.5 37.5t-160.5 103.5q-52 40 -91 114.5t-47 141.5q-7 48 -7 95q0 158 77 290q119 212 281 291q74 36 158 36q39 1 81 -7q131 -24 187 -107q13 -20 33.5 -37t33.5 -14q34 6 57 30t23 60q4 118 4 156v12q-3 46 -35 66q-15 9 -32 10 q-20 0 -43 -12q-10 -6 -29 -24.5t-31 -27.5q-147 59 -271 59q-116 0 -212 -52q-180 -98 -283.5 -251t-142.5 -364q-16 -68 -16 -141q0 -54 9 -111z" />
<glyph unicode="d" d="M84 1346v-7q0 -55 72 -59q7 -1 23 -1q32 0 102 3q-2 -373 -2 -1118q-26 -1 -45.5 0t-40 -0.5t-35.5 -5.5q-23 -8 -44 -26.5t-22 -35.5q-1 -8 0.5 -16t8.5 -18.5l10 -15t14 -18t12 -14.5q10 -12 53 -12q39 -1 75 -1q221 0 339 42q284 103 428 327q124 194 124 434 q0 37 -3 75q-11 140 -89 264t-200 200t-258 82q-68 5 -140 5h-37q-59 0 -131 -2q-96 -2 -140 -1q-67 -3 -74 -81zM420 1200q0 11 1 23.5t2.5 27.5t2.5 23q45 8 89 8q65 0 129 -18q106 -28 183 -92t122 -160q42 -90 42 -193v-14q-3 -118 -34.5 -218t-100.5 -186t-172 -139 q-51 -26 -77.5 -39t-75 -30t-93.5 -23q-4 41 -6.5 86.5t-3 75t-1.5 80t-1 71.5q-6 357 -6 717z" />
<glyph unicode="e" d="M61 76q0 -61 103 -68q90 -8 258 -8h57q141 0 295 2q132 2 200 2h44h17.5h17.5t15 0.5t15 1t13.5 2t14 3.5t12 5t12 6.5t10 9t10.5 11.5q19 25 22 59q1 16 1 29q0 15 -2 26q-4 20 -17.5 64t-15.5 51q-5 14 -30 31t-38 16q-18 -3 -37 -17.5t-26 -31.5q-5 -14 -8 -30 t-4.5 -41.5t-2.5 -34.5q-43 -2 -106 -2q-85 0 -209 4q-111 3 -197 2q-77 0 -133 -2q-2 160 -2 467q54 8 56 8q19 1 53.5 2t62 3t51.5 7q18 3 36.5 24t23.5 42q3 10 -16 30.5t-37 26.5q-25 8 -99 8q-82 0 -131 -2q-5 104 -5 157q1 5 1 10q0 53 3 154.5t3 164.5q49 -1 120 -1 q89 -1 214 1q160 2 248 2h59q8 -20 10 -58t9 -51q12 -21 32.5 -35t30.5 -14q49 4 76 63t27 142q-8 56 -33 84q-8 8 -15.5 13.5t-17.5 9t-17 5.5t-21 2.5t-21 0.5h-27h-29h-694q-111 0 -172 -13q-68 -9 -68 -70v-10q1 -29 18 -42.5t50 -22.5q6 -2 30.5 -6t26.5 -4 q1 -73 5 -255t4 -284t-4 -291t-5 -264q-62 -7 -94.5 -26t-32.5 -68z" />
<glyph unicode="f" d="M115 1319q13 -37 121 -37q27 0 61 2q23 -349 23 -682q0 -227 -11 -448q-7 -1 -24.5 -4t-26 -4.5t-23.5 -5t-22.5 -8t-16.5 -11t-12.5 -16t-3.5 -21.5v-9q0 -40 16 -56q16 -17 63 -17h5q154 0 232 -2q17 -1 30 -1q30 0 44 3q20 5 40 25q15 15 15.5 38t-17.5 50 q-12 19 -30.5 25.5t-51 8t-49.5 5.5v520q13 -2 42 -2q24 0 61 2q79 2 92 2q23 -3 49 -1.5t48 6t36.5 22t13.5 47.5q-1 31 -53 46q-47 14 -92 14h-11q-33 -1 -53 -1h-16q-17 -1 -37 -1t-45.5 0.5t-40.5 0.5l-18 467h479q9 -15 19.5 -38t19.5 -38t20 -24q27 -19 65 -19 q12 0 25 2q14 3 29 22q14 18 14 29q0 77 -47 183q-6 15 -31.5 28t-46.5 13q-659 0 -778 -2q-48 -4 -71 -19q-41 -23 -41 -62q0 -15 6 -32z" />
<glyph unicode="g" horiz-adv-x="1341" d="M12 469q15 -88 78 -168q79 -106 190.5 -177t232.5 -100q103 -24 209 -24q18 0 37 1q125 5 240 44q37 13 72.5 40t52.5 58q102 206 115 457v9q0 37 -23 58q-25 23 -71 23q-99 3 -165 3q-33 0 -58 -1q-52 -1 -78 -22q-23 -20 -23 -56v-6q0 -74 105 -80q86 -4 145 -8 q-45 -179 -53 -207q-14 -50 -43.5 -80t-81.5 -43q-98 -27 -189 -27q-233 0 -421 175q-78 74 -95 156q-19 75 -19 154q0 23 2 46q7 103 38 195.5t99.5 175.5t166.5 139q143 82 274 82q80 0 156 -31q71 -28 94 -48q36 -32 36 -86q0 -10 -1 -21q-6 -34 20 -55q23 -19 56 -19h6 q38 3 62.5 25t25.5 61q0 7 4 65q3 51 3 79q0 4 -1 8q0 28 -10.5 70t-32.5 65q-23 23 -55 23q-17 0 -37 -7q-12 -4 -18.5 -18.5t-9.5 -25.5t-14 -16t-32 9q-140 67 -284 67q-103 0 -207 -34q-179 -59 -305.5 -203.5t-176.5 -334.5q-29 -114 -29 -232q0 -78 13 -158z" />
<glyph unicode="h" horiz-adv-x="1390" d="M82 86v-9q0 -39 16 -55q18 -18 68 -18h231q19 -1 33 -1q29 0 43 3q20 4 39 23q15 15 15.5 38t-17.5 52q-12 19 -30.5 25.5t-51 8t-49.5 5.5l2 479h637l-12 -483q-17 -4 -49 -5.5t-51 -8t-32 -25.5q-17 -27 -16.5 -50.5t14.5 -37.5q21 -21 41 -25q14 -3 45 -3q14 0 31 1 q76 2 230 2h5q47 0 64 17q15 15 15 52v13q0 12 -3 21.5t-11.5 16t-16 11t-22.5 8t-23.5 5t-26 4.5t-24.5 4q-1 57 -3 146t-4 276q-1 94 -1 161t1 109l11 432q7 1 24.5 4t26 4.5t23.5 5t22.5 8t16.5 11t12.5 16t3.5 21.5v9q1 40 -15 56q-17 17 -64 17h-5q-154 0 -232 2 q-17 1 -30 1q-30 1 -44 -3q-20 -4 -40 -25q-15 -15 -15.5 -38t17.5 -52q12 -18 31 -24.5t50.5 -7.5t49.5 -5v-240q2 -40 2 -250h-62h-137q-59 -1 -111 -1q-70 0 -128 1q-102 2 -201 11l22 479q18 4 49.5 5t50 7.5t31.5 24.5q17 28 16.5 52t-14.5 38q-21 21 -41 25 q-14 3 -44 3q-14 0 -31 -1q-76 -2 -230 -2h-5q-47 0 -64 -17q-15 -15 -15 -52v-13q0 -12 3 -21.5t11.5 -16t16 -11t22.5 -8t23.5 -5t26 -4.5t24.5 -4q5 -214 5 -367.5t-5 -246.5l-16 -506q-8 -2 -28.5 -5.5t-30.5 -6t-26 -7.5t-24 -11.5t-14 -17t-6 -24.5z" />
<glyph unicode="i" horiz-adv-x="679" d="M106 1348q5 -26 21.5 -42t43 -22t43 -7t43.5 -1h9l-6 -1120q-96 -6 -128 -30q-17 -13 -17 -38q0 -23 14 -57q2 -7 7.5 -12.5t10 -8t13.5 -5t13 -3t14 -1.5l10 -1h34q48 0 121 2q57 1 102 1q36 0 64 -1q32 -1 48 23q11 16 12 36q0 10 -3 21q-5 26 -21.5 42.5t-43.5 22.5 t-43.5 7.5t-43.5 1.5h-7l8 1120q94 5 126 30q17 14 17 40q0 23 -12 55q-12 29 -70 29q-30 1 -70 1t-90.5 -1t-90.5 -1t-68 1q-32 0 -50 -24q-12 -16 -13 -38q0 -9 3 -20z" />
<glyph unicode="j" horiz-adv-x="860" d="M43 66q11 50 62 50q7 0 14 -1q4 0 11 -1t11 -1q109 5 183 63.5t100 163.5q22 83 22 166q4 111 6.5 304t3.5 330l1 138q-22 1 -63 1.5t-59 2.5t-42.5 7t-38.5 17.5t-23 32.5q-5 14 -5 26q0 22 15 42q23 29 54 29h4q52 -2 141 -2h48q41 1 75 1q70 0 113 -1q1 0 26 -1.5 t44.5 -3.5t39.5 -8.5t23 -15.5q10 -24 10 -43q0 -35 -33 -52q-52 -27 -174 -32q-2 -494 -4 -666q0 -85 -1.5 -131.5t-13.5 -117.5t-36 -127q-99 -234 -375 -281q-12 -2 -24 -2l-64 12q-31 14 -46 41q-8 17 -8 36q0 11 3 24z" />
<glyph unicode="k" horiz-adv-x="1236" d="M63 1350q6 -27 23.5 -44t48.5 -22.5t44.5 -6.5t45.5 -1l-20 -1120q-94 -5 -126 -30q-17 -14 -17 -40q0 -23 12 -55q3 -7 8.5 -12.5t10.5 -8t14 -5t12.5 -3t13.5 -1.5l10 -1h34q47 0 121 2q57 1 102 1q36 0 63 -1q33 -1 50 23t9 59q-5 22 -20 37t-29 21.5t-42 10t-36 3.5 h-35l-2 34q0 128 4 191q3 41 11 134.5t12 152.5l356 -453q29 -29 41.5 -54.5t8.5 -62.5q-1 -5 -1 -9q0 -35 42 -59q48 -28 98 -28q5 0 176 6q40 0 66 22t26 54q2 32 -24 58t-60 26q-40 1 -68 5.5t-44 8t-35 19t-24.5 22t-29.5 33.5l-432 532q7 9 33 40.5t39 48.5 q40 44 81 92t91 107t80 93q5 5 23.5 27t24 26.5t23 18.5t32.5 17.5t40.5 8.5t57.5 5q34 0 60 26t26 58q0 33 -26.5 54.5t-66.5 23.5q-29 0 -89 2t-89 2q-45 0 -71 -26q-22 -22 -22 -59q0 -6 1 -12q5 -36 -7 -60t-42 -56q-27 -28 -66.5 -77.5t-58.5 -70.5l-139 -153 q-14 7 -23 10l-12 342q95 7 127 32q17 13 16 40q0 23 -12 55q-13 29 -70 29q-24 1 -54 1q-46 0 -106.5 -2t-105.5 -2q-30 0 -53 1q-33 2 -51 -22q-12 -16 -12 -38q0 -9 3 -20z" />
<glyph unicode="l" horiz-adv-x="1155" d="M102 78v-6q0 -22 6 -36q8 -16 24 -23.5t31 -10t36 -2.5q54 2 171 2h170q181 -2 278 -2h63h26q69 0 92 9q27 11 43 65q5 20 7 43.5t2.5 53t1.5 46.5q1 6 1 12q0 23 -14 41q-17 22 -47 29q-10 2 -18 2q-49 0 -68 -57q-19 -66 -28 -92q-42 3 -104 3q-56 -1 -129 -3 q-80 -3 -136 -2q-51 0 -84 2q-14 106 -14 421v170q4 458 24 560q10 1 37 2.5t46 4.5t36 9t30.5 25t18.5 40q3 8 -18 25.5t-35 17.5q-46 1 -91 1q-137 0 -276 -7q-12 0 -27.5 -18.5t-15.5 -32.5q0 -13 14 -31t29 -24q12 -4 28.5 -5.5t32 -0.5t36.5 0q-2 -201 -7.5 -586.5 t-7.5 -572.5q-13 0 -35.5 -0.5t-33.5 -1t-26 -3t-26 -8.5q-20 -9 -31 -21.5t-12 -37.5z" />
<glyph unicode="m" horiz-adv-x="1822" d="M61 80q0 -33 20.5 -48.5t43.5 -17.5q59 -8 182 -10t150 -4h7q30 0 52 17q24 19 29 55q3 34 -17 56t-55 30q-17 5 -86 14q11 131 11 375v63q0 28 -1 55q0 250 13 384q299 -433 340 -492q32 -48 97 -147t101 -154q8 -1 16 -1q59 0 101 71q50 85 147.5 246t141.5 235 q4 7 98 158l-22 -795q-7 -1 -25 -2.5t-28.5 -3.5t-16.5 -8q-51 -44 -53 -76q-3 -29 16.5 -51t52.5 -23q166 -6 336 -6q36 0 54 22q16 18 16 48v10q-7 79 -74 82q-33 0 -123 4q0 193 3 549t3 547q63 0 86 2q57 3 81 23q24 19 24 60q0 40 -26 56q-25 16 -79 18q-59 0 -88 4 q-30 4 -50 4q-23 1 -37 -5q-24 -10 -44 -62q-47 -123 -161 -331.5t-206.5 -359.5t-109.5 -169q-289 422 -432 639q-18 28 -51 94t-59 119t-33 59q-17 13 -73 13q-11 0 -24 -1q-16 0 -66.5 2.5t-64.5 2.5q-46 0 -81.5 -16.5t-35.5 -51.5q1 -56 30 -74.5t91 -23.5q10 -1 34 -2 t30 -2v-64q0 -120 2 -290q3 -190 4 -352v-46q0 -180 -12 -336q-8 -2 -27 -2t-49 2q-14 1 -26 1q-34 0 -38 -7q-1 -1 -7 -5l-7.5 -5t-6.5 -5.5t-6.5 -8t-4.5 -10t-4 -13.5t-2 -17t-1 -22z" />
<glyph unicode="n" horiz-adv-x="1517" d="M102 1354q0 37 20.5 57.5t51.5 22.5q14 2 36 2t52 -2t55 -2t45 2q73 -17 127 -131q13 -28 168.5 -262t304.5 -454l150 -220l-4 917q-17 4 -49 5.5t-50.5 8t-31.5 25.5q-18 27 -17.5 50t15.5 38q21 21 41 25q14 3 45 3q14 0 31 -1q57 -2 114.5 -2t114.5 2q51 0 69 -18 q16 -17 15 -57v-9q0 -12 -3 -21.5t-11.5 -16t-16 -11t-22.5 -8t-23.5 -5t-26 -4.5t-24.5 -4l-4 -90l-6 -1036q18 -4 49.5 -5t50.5 -7.5t31 -24.5q18 -28 18 -51q0 -24 -16 -39q-21 -21 -41 -25q-14 -3 -44 -3q-13 0 -30 1q-78 2 -231 2h-5q-48 0 -64 17q-16 16 -15 56v9 q0 12 3.5 21.5t12.5 16t16.5 11t22.5 8t23.5 5t26 4.5t24.5 4q-24 35 -64.5 93.5t-148 211.5t-194 274t-168.5 231t-107 134l4 -950q18 -4 50.5 -5.5t51 -8t31.5 -25.5q17 -27 16.5 -50.5t-14.5 -37.5q-21 -21 -41 -25q-14 -3 -45 -3q-14 0 -31 1q-57 2 -114.5 2t-116.5 -2 q-49 0 -67 18q-15 16 -15 53v13q0 12 3 21.5t11.5 16t16 11t22.5 8t23.5 5t26 4.5t24.5 4l4 90q2 164 5 493t5 494q0 6 -5.5 18t-6.5 17q-87 6 -88 6q-66 2 -66 84z" />
<glyph unicode="o" horiz-adv-x="1517" d="M104 636q8 -144 56 -237q68 -132 146.5 -209.5t207.5 -138.5q98 -48 243.5 -48t246.5 52q209 106 305.5 272.5t105.5 428.5q0 7 1 14q0 145 -78 291q-81 153 -212 250q-19 11 -44.5 23.5t-71 32.5t-97.5 34q-51 15 -109 25q-48 9 -101 8h-20q-63 -2 -120 -19 q-165 -49 -276.5 -186.5t-159.5 -327.5q-24 -94 -24 -203q-1 -31 1 -62zM262 633q-5 46 -4 89q0 342 297 505q45 25 118 37q36 6 67.5 6t56.5 -6q159 -37 259 -117t167 -227q20 -42 32 -112q10 -56 10 -100q0 -11 -1 -22q-12 -129 -48.5 -218.5t-123.5 -160.5 q-64 -53 -120 -86t-116 -52q-50 -16 -101 -16q-11 0 -22 1q-63 4 -131 30q-100 44 -154.5 95.5t-115.5 152.5q-14 24 -40.5 99.5t-29.5 101.5z" />
<glyph unicode="p" horiz-adv-x="1146" d="M211 4h24h57q26 -1 44 -1q25 0 39 1q65 3 117 23q12 4 22 23.5t8 33.5q0 15 -11.5 33t-25.5 24q-20 10 -86 21v426q38 8 139.5 26.5t153.5 32.5q64 17 128 60t117.5 103.5t82.5 144.5q24 66 24 135q0 19 -2 38q-21 209 -170 261q-105 37 -278 59q-27 3 -54 5q-19 1 -39 1 h-21q-32 -1 -55 -2t-60.5 -4.5t-54.5 -5t-59 -6.5t-54 -6q-20 -3 -31.5 -7.5t-18.5 -9.5t-10 -19t-4 -24.5t-2 -37.5t-2 -48q56 -5 123 -12q-3 -107 -5.5 -499.5t-15.5 -600.5q-9 -4 -20 -7.5t-18 -6t-13 -6t-10 -7.5q-3 -4 -15.5 -21t-17 -25t-9.5 -21q-5 -11 -5 -20 q0 -54 88 -54zM424 752v542q67 17 133 17q130 0 256 -66q58 -29 76 -119q6 -29 6 -55q0 -57 -27 -102q-95 -167 -256 -189q-21 -3 -188 -28z" />
<glyph unicode="q" horiz-adv-x="1611" d="M111 627q10 -76 15.5 -109t22 -92t41.5 -104q58 -104 183 -203q140 -119 314 -119q95 0 200 35q28 8 55 20.5t68.5 35t58.5 30.5q146 -104 215 -135.5t146 -34.5h12q36 0 52 16q17 19 17 72q0 31 -36 53t-80 27q-107 17 -207 133l24 36t19 29q94 160 129 317 q20 86 20 176q0 77 -14 157q-42 241 -266 389q-142 91 -304 91q-140 0 -294 -67q-132 -58 -229.5 -181.5t-139.5 -274.5q-28 -103 -28 -203q0 -47 6 -94zM326 444q-65 145 -65 277q0 265 265 477q60 35 116 56t98 30q28 5 56 5l30 -1q42 -5 70.5 -13t62.5 -27.5t52.5 -33.5 t47.5 -38q157 -122 170 -308q2 -30 2 -58q0 -84 -17 -153q-24 -93 -86 -190q-11 -18 -35.5 -47.5t-29.5 -36.5q-17 13 -42.5 40.5t-46.5 43.5t-44 16q-22 0 -40.5 -13.5t-26.5 -34.5t2.5 -51t41.5 -58q10 -11 49 -60q-34 -44 -78.5 -62.5t-107.5 -25.5q-27 -2 -53 -2 q-272 0 -391 268z" />
<glyph unicode="r" d="M63 1335q6 -57 64 -57h6h103q-4 -99 -4 -571t-3 -553h-26.5t-29 0.5t-15.5 -0.5q-64 -8 -64 -72q3 -37 28.5 -56.5t65.5 -21.5q65 0 201 -4q47 0 77 24q27 22 26 60v10q-4 47 -101 60q0 61 -1 202.5t-1 204.5l334 -348q29 -29 42 -55t9 -62q-1 -5 -1 -9q-1 -35 41 -59 q46 -28 99 -28l177 6q40 0 66 22t26 54t-26 58t-60 26q-48 1 -77.5 5t-53.5 19t-33 24t-37 40l-270 297q-24 23 -95 108q26 10 69 26t74 28.5t56 27.5q99 57 170 125q80 75 99 179q6 30 5 60q0 71 -32 135q-46 91 -144 130q-77 31 -167 46q-87 15 -179 14h-6q-96 0 -176 -7 t-178 -20q-29 -3 -45 -21q-13 -15 -13 -38v-9zM385 1284q13 3 56 4h23q35 0 79 -2q59 -3 125 -17.5t110 -39.5q43 -24 60 -70q10 -28 10 -58q0 -19 -4 -39q-11 -51 -45 -93q-69 -85 -173.5 -118.5t-238.5 -35.5z" />
<glyph unicode="s" d="M203 354q0 -147 10 -329q3 -43 40 -64q19 -11 40 -11q18 0 37 9q11 4 22 13t24 21.5t21 18.5q25 -3 67.5 -9.5t75 -10t60.5 -2.5q81 1 144 17.5t119.5 60t92.5 114.5q53 111 53 218q0 59 -16 116q-24 81 -64 129.5t-118 59.5q-40 6 -80 15.5t-102 27.5t-78 22 q-40 12 -80 31q-93 47 -94 130q0 29 12 62q62 177 238 230q32 10 62 10q51 0 99 -28q74 -44 99 -132q9 -30 22 -39q29 -20 53 -20q26 0 44 24q35 48 38 136q1 23 1 47q0 63 -9 137q-6 52 -42 68q-13 6 -27 6q-25 0 -54 -19q-8 -5 -16 -14t-15.5 -18t-9.5 -11q-29 0 -82 4 q-46 3 -82 3q-4 -1 -10 -1q-40 0 -73 -8q-261 -70 -367 -313q-28 -68 -28 -130q0 -33 8 -63q22 -88 85 -149t144 -78q136 -30 248 -64q73 -23 104 -64t33 -112v-8q0 -75 -36 -135q-38 -64 -101 -82q-59 -18 -116 -18q-81 0 -159 36q-98 44 -108 179q-6 59 -54 59h-8 q-33 -1 -50 -21t-17 -51z" />
<glyph unicode="t" horiz-adv-x="1333" d="M61 1384q1 28 29 48q30 21 64 23h8q30 0 55 -13q41 -23 80 -23h719q42 0 80 23q22 15 50 15q22 1 47 -9q57 -20 58 -64v-21q0 -76 -18 -161q-5 -31 -47 -39q-9 -2 -18 -2q-28 0 -44 21q-9 14 -23 43t-20 39h-348q0 -16 2 -527t2 -579q5 -1 27 -3t30.5 -4t23 -8t21 -17 t7.5 -28q1 -30 -7.5 -50t-26 -29t-35 -12t-42.5 -3q-136 4 -180 4q-85 3 -90 70q0 72 63 80h47l7 1106h-351q-33 -68 -43 -82q-15 -21 -43 -21q-8 0 -17 2q-40 8 -46 39q-21 100 -21 170v12z" />
<glyph unicode="u" horiz-adv-x="1497" d="M102 1341v14q0 35 14 51q16 18 66 19q133 0 228 5q19 1 33 1q29 0 41 -3q18 -4 38 -23q14 -14 15 -37.5t-15 -52.5q-12 -19 -28 -25t-44 -6.5t-47 -5.5l-14 -483l-2 -281q0 -196 102 -293q82 -67 247 -67h14h14q163 0 246 67q98 104 98 284v11l-8 279l-4 481 q-17 4 -47 5.5t-46 8t-28 25.5q-16 29 -15 52.5t15 37.5q19 19 39 23q13 3 43 3q15 0 33 -1q130 -7 225 -7q51 1 67 -17q14 -15 13 -51v-14q0 -12 -3.5 -21t-11.5 -15.5t-16 -11t-21.5 -8t-23 -5.5t-25.5 -4.5t-24 -3.5q-2 -48 -4 -118q0 -69 -4 -253q-2 -86 -2 -144 q0 -67 2 -98l4 -225q0 -103 -58 -207q-58 -105 -188 -165q-125 -58 -261 -58h-9.5h-8.5q-137 0 -263 58q-130 60 -189 165q-56 107 -56 207l5 225q1 52 1 112.5t-1 128.5q-2 136 -6 254l-3 118l-24.5 3.5t-26 4.5t-23 5.5t-22 8t-16 11t-12 15.5t-3.5 21zM743 154h13h-6h-7z " />
<glyph unicode="v" horiz-adv-x="1519" d="M102 1338q-1 6 0 11q0 29 23 54q13 14 39.5 20.5t44.5 7.5q9 0 23 0.5t32 -0.5q38 -1 41 -1h131q8 2 19 2q9 0 19 -2q24 -2 45.5 -6t36 -21.5t13.5 -44.5q-1 -38 -26.5 -57.5t-53.5 -21.5t-57 -0.5t-31 1.5q23 -83 52.5 -181.5t53.5 -174.5t65 -197t60.5 -178.5t67 -195 t60.5 -175.5l358 1098q-2 0 -31 -1t-56.5 1.5t-53 21.5t-27.5 56q-1 28 14 45.5t36.5 22t45 6.5t39.5 -1q19 -1 41 -1t49 0.5t42 0.5q4 0 40 1t55 0.5t45.5 -7t39.5 -20.5q21 -26 21 -54q0 -7 -1 -13q-6 -36 -35 -52q-14 -7 -51.5 -6.5t-38.5 -5.5q-8 -10 -26 -48t-23 -55 q-7 -21 -24.5 -70t-31 -89.5t-22.5 -71.5l-274 -838q-27 -60 -63 -80q-33 -19 -95 -18h-12q-26 1 -45.5 10t-31.5 28t-18 33.5t-14 39.5q-81 255 -256 829q-74 219 -77 229q-5 18 -23.5 55.5t-28.5 47.5q-5 6 -40.5 6t-47.5 6q-31 18 -37 54z" />
<glyph unicode="w" horiz-adv-x="2328" d="M104 1350q8 -65 56 -72q11 -3 37 -4.5t36 -3.5q11 -32 75.5 -255.5t148.5 -513.5t123 -421q10 -36 42 -58q22 -15 45 -16q11 0 23 4q30 10 52.5 28t39 47.5t26.5 54.5t23 67q37 116 121.5 333.5t150.5 377.5l66 159q246 -613 330 -874q15 -43 24.5 -67t26.5 -54t39.5 -48 t52.5 -28q11 -4 22 -4q23 0 45 16q33 24 44 60q40 134 123 420.5t148 511t75 256.5q12 2 37 4t37 4q48 11 55 72v7q0 26 -20 53q-22 30 -41 30q-53 4 -132.5 4t-185.5 -4q-24 0 -37.5 -31.5t-11.5 -48.5q3 -45 35 -70q13 -11 49 -14.5t51 -9.5q-42 -159 -85.5 -305 t-117 -377t-100.5 -316q-17 50 -43.5 111t-38.5 96q-13 36 -67.5 185t-85.5 229q-53 143 -164 454q-11 30 -41 42.5t-59.5 1.5t-40.5 -40q-21 -59 -73.5 -214t-84.5 -240q-101 -271 -152 -416q-13 -34 -39 -94t-45 -111q-34 112 -101.5 322t-114 364t-87.5 312q14 5 52 8.5 t51 13.5q27 24 34 72q0 19 -13.5 49t-37.5 31q-104 4 -183.5 4t-133.5 -4q-20 -2 -42 -31q-19 -25 -19 -50q0 -4 1 -9z" />
<glyph unicode="x" d="M78 95q-1 -4 0 -9q0 -7 2 -16q4 -31 18 -43t43 -15q23 -2 50 -2t60 1t50 1q7 0 42.5 -3t65.5 -3t44 6q35 17 44 52q3 10 3 20q0 23 -15 41q-7 9 -21 13.5t-27.5 4.5h-26t-19 2t-4.5 7q29 70 121 230.5t104 182.5q42 -68 117 -205.5t119 -207.5q-1 -1 -30.5 -2t-31.5 -3 q-46 -6 -58 -27.5t-5 -58.5q2 -11 8 -20t15.5 -14.5t19 -10t24 -6.5t25 -3t27 -1h25t23.5 1t19 1h125h20q66 0 90 18q25 19 25 54v8q-2 14 -5.5 23.5t-13.5 21t-31.5 18t-53.5 7.5q-41 2 -84 67q-38 56 -108 180t-121 220l-50 96q52 84 166 295t164 293q12 2 27 3t23 1.5 t19 2.5t14.5 6t9.5 12t4.5 20t-1.5 30q-8 51 -65 54q-21 3 -44.5 3.5t-56 -0.5t-44.5 -1q-5 0 -27.5 0.5t-39.5 1t-36.5 -1.5t-28.5 -6q-32 -14 -38 -48.5t16 -58.5q11 -14 44 -14q12 0 28 2q19 2 19 -1q0 -1 -1 -3q-23 -39 -109.5 -198.5t-132.5 -227.5q-39 61 -117 209.5 t-120 212.5q1 1 28 1.5t29 2.5q41 6 52.5 25.5t4.5 54.5q-2 10 -6 18t-10.5 13t-12 9t-15.5 6t-16.5 3.5t-18.5 1.5h-17.5t-18 -1t-16.5 -1q-18 -1 -61 0.5t-53 1.5q-13 1 -25 1q-61 0 -95 -17q-42 -20 -38 -56q3 -18 8 -29t26.5 -21.5t59.5 -12.5q15 -1 26 -11.5t24 -35.5 t14 -27q28 -52 95.5 -173.5t123 -221t63.5 -115.5q-206 -383 -317 -559q-9 -1 -21.5 -2.5t-20.5 -2.5t-19.5 -2.5t-18.5 -3.5t-16 -5.5t-13.5 -7.5t-11 -11t-7.5 -15t-3 -19z" />
<glyph unicode="y" d="M80 1356q2 -17 4.5 -25.5t11.5 -21t29.5 -19t52.5 -8.5q16 0 26.5 -12t22 -37t15.5 -31q68 -105 169.5 -295t102.5 -219q4 -144 4 -265q0 -151 -6 -265q-9 -2 -42 0.5t-38 1.5q-33 -7 -56 -34q-17 -20 -17 -48q0 -7 1 -15q10 -55 103 -55q13 0 147 -3q58 -1 92 -1 q46 0 50 2q49 2 68 40q6 13 6 27q0 28 -25 62q-8 10 -24.5 15.5t-35 6t-38 1t-33.5 0.5q0 136 4.5 326.5t11.5 203.5q58 98 167 300t163 294q13 2 36.5 4t35.5 3t28 6.5t23.5 14t12.5 24.5q2 10 2 23q0 8 -1 17q-3 33 -14.5 45t-38.5 15q-23 3 -48 3.5t-60.5 -0.5t-49.5 -1 q-4 0 -30.5 1t-46 1t-43 -2.5t-34.5 -8.5q-33 -17 -39 -55q-1 -8 -1 -15q0 -29 18 -50q14 -18 66 -18h15q22 1 22 -2q0 -1 -1 -3q-35 -52 -121 -207t-135 -223q-45 74 -123 217.5t-120 212.5q1 1 20.5 1.5t22.5 2.5q46 7 57.5 29.5t3.5 62.5q-5 31 -29.5 45t-52.5 12.5 t-55 -1.5q-17 -1 -62.5 -2t-62.5 -2q-14 1 -27 1q-59 0 -80 -16q-24 -17 -24 -53v-8z" />
<glyph unicode="z" d="M193 39q20 -25 96 -27q118 0 235 -6q58 -4 179 -4.5t171 -3.5q15 -1 28 -1q112 -1 158 51q43 48 44 148q0 21 -2 44q-7 63 -62 63q-15 0 -26 -4t-18 -12.5t-10 -15t-7 -17.5q-6 -17 -12.5 -53t-8.5 -45q-105 -6 -211 -6q-185 0 -370 18q50 70 295 471t358 604 q37 69 37 112q0 19 -7 33q-24 46 -149 52q-26 1 -62 1q-85 0 -229 -5q-90 -3 -158 -3q-86 0 -132 5q-11 1 -20 1q-40 0 -60 -17q-26 -21 -27 -74q-1 -37 -2 -112t-2 -112q0 -63 66 -82q43 18 63 48q18 28 19 59l-2 58q1 9 1 19q0 38 7 70q42 -4 104 -4q67 0 155 4 q94 5 162 5q57 0 97 -3q-4 -16 -346 -578t-350 -587q-12 -36 -12 -60q0 -22 10 -34z" />
<glyph unicode="&#xad;" horiz-adv-x="733" d="M103.5 719q-1.5 -58 11.5 -68q11 -7 254.5 -6.5t251.5 6.5q9 7 9 65t-9 68q-9 9 -250.5 8.5t-255.5 -8.5q-10 -7 -11.5 -65z" />
<glyph unicode="&#x2000;" horiz-adv-x="797" />
<glyph unicode="&#x2001;" horiz-adv-x="1594" />
<glyph unicode="&#x2002;" horiz-adv-x="797" />
<glyph unicode="&#x2003;" horiz-adv-x="1594" />
<glyph unicode="&#x2004;" horiz-adv-x="531" />
<glyph unicode="&#x2005;" horiz-adv-x="398" />
<glyph unicode="&#x2006;" horiz-adv-x="265" />
<glyph unicode="&#x2007;" horiz-adv-x="265" />
<glyph unicode="&#x2008;" horiz-adv-x="199" />
<glyph unicode="&#x2009;" horiz-adv-x="318" />
<glyph unicode="&#x200a;" horiz-adv-x="88" />
<glyph unicode="&#x2010;" horiz-adv-x="733" d="M103.5 719q-1.5 -58 11.5 -68q11 -7 254.5 -6.5t251.5 6.5q9 7 9 65t-9 68q-9 9 -250.5 8.5t-255.5 -8.5q-10 -7 -11.5 -65z" />
<glyph unicode="&#x2011;" horiz-adv-x="733" d="M103.5 719q-1.5 -58 11.5 -68q11 -7 254.5 -6.5t251.5 6.5q9 7 9 65t-9 68q-9 9 -250.5 8.5t-255.5 -8.5q-10 -7 -11.5 -65z" />
<glyph unicode="&#x2012;" horiz-adv-x="733" d="M103.5 719q-1.5 -58 11.5 -68q11 -7 254.5 -6.5t251.5 6.5q9 7 9 65t-9 68q-9 9 -250.5 8.5t-255.5 -8.5q-10 -7 -11.5 -65z" />
<glyph unicode="&#x2013;" horiz-adv-x="1230" d="M103 719q-3 -58 23 -68q21 -7 494.5 -6.5t489.5 6.5q17 7 17 65t-17 68q-18 9 -487.5 8.5t-496.5 -8.5q-20 -7 -23 -65z" />
<glyph unicode="&#x2014;" horiz-adv-x="2254" d="M103.5 719q-5.5 -58 44.5 -68q43 -7 990 -6.5t978 6.5q35 7 35 65t-35 68q-35 9 -974 8.5t-994 -8.5q-39 -7 -44.5 -65z" />
<glyph unicode="&#x202f;" horiz-adv-x="318" />
<glyph unicode="&#x205f;" horiz-adv-x="398" />
<glyph unicode="&#x25fc;" horiz-adv-x="1443" d="M0 0v1444h1444v-1444h-1444z" />
</font>
</defs>
</svg>
